<?xml version="1.0" standalone="no"?><!DOCTYPE svg PUBLIC "-//W3C//DTD SVG 1.1//EN" "http://www.w3.org/Graphics/SVG/1.1/DTD/svg11.dtd"><svg t="1598752019495" class="icon" viewBox="0 0 1172 1024" version="1.1" xmlns="http://www.w3.org/2000/svg" p-id="5709" xmlns:xlink="http://www.w3.org/1999/xlink" width="228.90625" height="200"><defs><style type="text/css">@font-face { font-family: rbicon; src: url("chrome-extension://dipiagiiohfljcicegpgffpbnjmgjcnf/fonts/rbicon.woff2") format("woff2"); font-weight: normal; font-style: normal; }
</style></defs><path d="M856.954842 351.668876h211.821659l-26.611988 30.078871c-38.428687 45.020648-86.76973 108.352296-125.051929 150.052549l-125.051929 150.052548c-8.349816 10.058843-16.699633 18.262172-25.049449 28.321015l-101.711506 119.973678L856.954842 351.668876m-461.876686 0h383.456773a483.410424 483.410424 0 0 1-25.049449 61.72028l-171.635115 428.477422L395.078156 351.668876m103.469362 475.255925a230.132659 230.132659 0 0 1-25.049449-30.078871L351.571217 648.746555c-48.145725-54.981832-99.758333-121.731534-146.488007-178.422393a1486.36498 1486.36498 0 0 1-50.098898-58.595203L106.59444 351.668876h211.821658l180.13142 475.255925m385.263459-540.052453a276.129894 276.129894 0 0 1 18.40866-48.341043c10.058843-25.049449 53.370464-138.431167 60.011253-146.780983 6.59196 13.379238 111.623862 185.014353 116.702113 196.684564l-195.317343-1.562538m-458.556292 1.709026c1.709027-6.59196 105.031901-133.401745 119.973678-151.663917 6.59196-8.349816 13.379238-16.699633 20.020027-25.049449a316.511754 316.511754 0 0 1 20.020028-25.049449c11.670211 9.765867 34.961804 39.991226 46.778504 50.098898 14.941777 16.699633 51.661437 61.72028 66.603214 76.710887a81.300844 81.300844 0 0 0 11.670211 11.670211c3.320395 4.882934 6.787278 8.349816 10.058843 13.379238l43.311621 50.098899H425.157026m-333.504363 0c1.709027-6.59196 53.370464-91.652663 61.720281-103.322875 10.058843-16.699633 20.020028-34.961804 30.07887-51.661437a230.523294 230.523294 0 0 0 16.748463-25.195937 216.167469 216.167469 0 0 1 16.699632-25.04945l76.710887 205.083211H91.652663M820.332841 246.832292a63.18516 63.18516 0 0 0-10.058844-11.670211l-30.176529-34.864146c-3.320395-4.882934-6.59196-6.59196-10.058843-11.670211L659.977302 63.575795H893.576844c-1.269563 6.59196-66.310238 173.392971-73.244003 183.305327m-460.21649 10.058843c-3.320395-4.882934-73.244004-185.014353-73.244003-193.36417l225.005579 1.709027L360.116351 256.939965M0 303.523151v21.777884A613.10114 613.10114 0 0 0 68.36107 415.147013a440.29412 440.29412 0 0 0 36.670831 43.31162c11.670211 14.941777 23.291593 30.078871 34.961805 45.020648l145.023127 173.392971c46.632016 54.981832 94.973058 118.411139 143.460588 175.101998 23.291593 30.078871 46.632016 60.011254 71.632636 86.76973 11.670211 14.941777 23.291593 30.078871 34.961804 45.020647l26.611988 33.399266a52.833341 52.833341 0 0 1 13.379238 6.59196h13.379238a352.205999 352.205999 0 0 0 58.253398-63.478136c48.341042-56.690859 98.439941-116.702112 146.780983-173.392971a240.923943 240.923943 0 0 0 18.262171-21.729055c11.670211-14.941777 23.291593-28.321015 36.670832-43.311621l311.775308-370.224023c9.765867-13.379238 6.59196-13.379238 11.670212-28.321015v-14.551142c-4.882934-6.59196-6.59196-13.379238-11.670212-21.729054l-133.01111-221.880502a240.582137 240.582137 0 0 0-25.049449-39.991226 50.098898 50.098898 0 0 0-16.699633-14.941777 77.589815 77.589815 0 0 0-11.670211-4.882933c-1.709027-1.709027-3.320395-1.709027-4.882934-3.320395L963.7446 0.097659H208.354776l-11.670212 4.882933c-3.320395 1.709027-8.349816 3.320395-11.670211 4.882934a179.203662 179.203662 0 0 0-16.699633 14.941777L23.291593 263.776072A388.583854 388.583854 0 0 0 0 303.523151" p-id="5710" fill="#13227a"></path></svg>